
<global>
amp_veltrack=0
ampeg_attack=0.01
ampeg_release=0.35
</global>

<group>
group_label=PP
xf_cccurve=gain
xfin_hicc1=42
xfout_hicc1=85
xfout_locc1=42

<region>
hikey=g6
hivel=127
lokey=f#6
loop_end=280732
loop_mode=loop_continuous
loop_start=100033
loop_xfade=45174
lovel=1
offset=21827
pitch_keycenter=g6
sample=Violins1_trill_whole_PP_G6.opus
</region>

<region>
hikey=g5
hivel=127
lokey=f#5
loop_end=282471
loop_mode=loop_continuous
loop_start=100653
loop_xfade=45454
lovel=1
offset=17756
pitch_keycenter=g5
sample=Violins1_trill_whole_PP_G5.opus
</region>

<region>
hikey=g4
hivel=127
lokey=f#4
loop_end=282471
loop_mode=loop_continuous
loop_start=100653
loop_xfade=45454
lovel=1
offset=18786
pitch_keycenter=g4
sample=Violins1_trill_whole_PP_G4.opus
</region>

<region>
hivel=127
key=g3
loop_end=280555
loop_mode=loop_continuous
loop_start=99970
loop_xfade=45146
lovel=1
offset=29320
sample=Violins1_trill_whole_PP_G3.opus
</region>

<region>
hikey=f6
hivel=127
lokey=e6
loop_end=282471
loop_mode=loop_continuous
loop_start=100653
loop_xfade=45454
lovel=1
offset=34051
pitch_keycenter=f6
sample=Violins1_trill_whole_PP_F6.opus
</region>

<region>
hikey=f5
hivel=127
lokey=e5
loop_end=282471
loop_mode=loop_continuous
loop_start=100653
loop_xfade=45454
lovel=1
offset=29298
pitch_keycenter=f5
sample=Violins1_trill_whole_PP_F5.opus
</region>

<region>
hikey=f4
hivel=127
lokey=e4
loop_end=282471
loop_mode=loop_continuous
loop_start=100653
loop_xfade=45454
lovel=1
offset=20935
pitch_keycenter=f4
sample=Violins1_trill_whole_PP_F4.opus
</region>

<region>
hikey=d#6
hivel=127
lokey=d6
loop_end=282471
loop_mode=loop_continuous
loop_start=100653
loop_xfade=45454
lovel=1
offset=18659
pitch_keycenter=d#6
sample=Violins1_trill_whole_PP_D#6.opus
</region>

<region>
hikey=d#5
hivel=127
lokey=d5
loop_end=282471
loop_mode=loop_continuous
loop_start=100653
loop_xfade=45454
lovel=1
offset=26929
pitch_keycenter=d#5
sample=Violins1_trill_whole_PP_D#5.opus
</region>

<region>
hikey=d#4
hivel=127
lokey=d4
loop_end=282471
loop_mode=loop_continuous
loop_start=100653
loop_xfade=45454
lovel=1
offset=15204
pitch_keycenter=d#4
sample=Violins1_trill_whole_PP_D#4.opus
</region>

<region>
hikey=c#6
hivel=127
lokey=c6
loop_end=282471
loop_mode=loop_continuous
loop_start=100653
loop_xfade=45454
lovel=1
offset=29104
pitch_keycenter=c#6
sample=Violins1_trill_whole_PP_C#6.opus
</region>

<region>
hikey=c#5
hivel=127
lokey=c5
loop_end=273944
loop_mode=loop_continuous
loop_start=97614
loop_xfade=44082
lovel=1
offset=4804
pitch_keycenter=c#5
sample=Violins1_trill_whole_PP_C#5.opus
</region>

<region>
hikey=c#4
hivel=127
lokey=c4
loop_end=268584
loop_mode=loop_continuous
loop_start=95704
loop_xfade=43220
lovel=1
offset=3527
pitch_keycenter=c#4
sample=Violins1_trill_whole_PP_C#4.opus
</region>

<region>
hikey=D7
hivel=127
lokey=a#6
loop_end=282471
loop_mode=loop_continuous
loop_start=100653
loop_xfade=45454
lovel=1
offset=20613
pitch_keycenter=B6
sample=Violins1_trill_whole_PP_B6.opus
</region>

<region>
hikey=b5
hivel=127
lokey=a#5
loop_end=282471
loop_mode=loop_continuous
loop_start=100653
loop_xfade=45454
lovel=1
offset=25382
pitch_keycenter=b5
sample=Violins1_trill_whole_PP_B5.opus
</region>

<region>
hikey=b4
hivel=127
lokey=a#4
loop_end=278571
loop_mode=loop_continuous
loop_start=99263
loop_xfade=44827
lovel=1
offset=17410
pitch_keycenter=b4
sample=Violins1_trill_whole_PP_B4.opus
</region>

<region>
hikey=b3
hivel=127
lokey=a#3
loop_end=282445
loop_mode=loop_continuous
loop_start=100643
loop_xfade=45450
lovel=1
offset=22358
pitch_keycenter=b3
sample=Violins1_trill_whole_PP_B3.opus
</region>

<region>
hikey=a6
hivel=127
lokey=g#6
loop_end=282471
loop_mode=loop_continuous
loop_start=100653
loop_xfade=45454
lovel=1
offset=32719
pitch_keycenter=a6
sample=Violins1_trill_whole_PP_A6.opus
</region>

<region>
hikey=a5
hivel=127
lokey=g#5
loop_end=282471
loop_mode=loop_continuous
loop_start=100653
loop_xfade=45454
lovel=1
offset=25868
pitch_keycenter=a5
sample=Violins1_trill_whole_PP_A5.opus
</region>

<region>
hikey=a4
hivel=127
lokey=g#4
loop_end=282471
loop_mode=loop_continuous
loop_start=100653
loop_xfade=45454
lovel=1
offset=20378
pitch_keycenter=a4
sample=Violins1_trill_whole_PP_A4.opus
</region>

<region>
hikey=a3
hivel=127
lokey=g#3
loop_end=282471
loop_mode=loop_continuous
loop_start=100653
loop_xfade=45454
lovel=1
offset=20512
pitch_keycenter=a3
sample=Violins1_trill_whole_PP_A3.opus
</region>
</group>

<group>
group_label=MF
xf_cccurve=gain
xfin_hicc1=85
xfin_locc1=42
xfout_hicc1=127
xfout_locc1=85

<region>
hikey=g6
hivel=127
lokey=f#6
loop_end=241025
loop_mode=loop_continuous
loop_start=85884
loop_xfade=38785
lovel=1
pitch_keycenter=g6
sample=Violins1_trill_whole_MF_G6.opus
</region>

<region>
hikey=g5
hivel=127
lokey=f#5
loop_end=237402
loop_mode=loop_continuous
loop_start=84593
loop_xfade=38202
lovel=1
pitch_keycenter=g5
sample=Violins1_trill_whole_MF_G5.opus
</region>

<region>
hikey=g4
hivel=127
lokey=f#4
loop_end=242535
loop_mode=loop_continuous
loop_start=86422
loop_xfade=39028
lovel=1
pitch_keycenter=g4
sample=Violins1_trill_whole_MF_G4.opus
</region>

<region>
hivel=127
key=g3
loop_end=237267
loop_mode=loop_continuous
loop_start=84545
loop_xfade=38180
lovel=1
sample=Violins1_trill_whole_MF_G3.opus
</region>

<region>
hikey=f6
hivel=127
lokey=e6
loop_end=237693
loop_mode=loop_continuous
loop_start=84697
loop_xfade=38249
lovel=1
pitch_keycenter=f6
sample=Violins1_trill_whole_MF_F6.opus
</region>

<region>
hikey=f5
hivel=127
lokey=e5
loop_end=237368
loop_mode=loop_continuous
loop_start=84581
loop_xfade=38196
lovel=1
pitch_keycenter=f5
sample=Violins1_trill_whole_MF_F5.opus
</region>

<region>
hikey=f4
hivel=127
lokey=e4
loop_end=244417
loop_mode=loop_continuous
loop_start=87093
loop_xfade=39331
lovel=1
pitch_keycenter=f4
sample=Violins1_trill_whole_MF_F4.opus
</region>

<region>
hikey=d#6
hivel=127
lokey=d6
loop_end=252038
loop_mode=loop_continuous
loop_start=89808
loop_xfade=40557
lovel=1
pitch_keycenter=d#6
sample=Violins1_trill_whole_MF_D#6.opus
</region>

<region>
hikey=d#5
hivel=127
lokey=d5
loop_end=246002
loop_mode=loop_continuous
loop_start=87658
loop_xfade=39586
lovel=1
pitch_keycenter=d#5
sample=Violins1_trill_whole_MF_D#5.opus
</region>

<region>
hikey=d#4
hivel=127
lokey=d4
loop_end=240985
loop_mode=loop_continuous
loop_start=85870
loop_xfade=38778
lovel=1
pitch_keycenter=d#4
sample=Violins1_trill_whole_MF_D#4.opus
</region>

<region>
hikey=c#6
hivel=127
lokey=c6
loop_end=242701
loop_mode=loop_continuous
loop_start=86482
loop_xfade=39054
lovel=1
pitch_keycenter=c#6
sample=Violins1_trill_whole_MF_C#6.opus
</region>

<region>
hikey=c#5
hivel=127
lokey=c5
loop_end=242068
loop_mode=loop_continuous
loop_start=86256
loop_xfade=38953
lovel=1
pitch_keycenter=c#5
sample=Violins1_trill_whole_MF_C#5.opus
</region>

<region>
hikey=c#4
hivel=127
lokey=c4
loop_end=244746
loop_mode=loop_continuous
loop_start=87210
loop_xfade=39384
lovel=1
pitch_keycenter=c#4
sample=Violins1_trill_whole_MF_C#4.opus
</region>

<region>
hikey=D7
hivel=127
lokey=a#6
loop_end=242104
loop_mode=loop_continuous
loop_start=86269
loop_xfade=38958
lovel=1
pitch_keycenter=B6
sample=Violins1_trill_whole_MF_B6.opus
</region>

<region>
hikey=b5
hivel=127
lokey=a#5
loop_end=260919
loop_mode=loop_continuous
loop_start=92973
loop_xfade=41986
lovel=1
pitch_keycenter=b5
sample=Violins1_trill_whole_MF_B5.opus
</region>

<region>
hikey=b4
hivel=127
lokey=a#4
loop_end=243133
loop_mode=loop_continuous
loop_start=86635
loop_xfade=39124
lovel=1
pitch_keycenter=b4
sample=Violins1_trill_whole_MF_B4.opus
</region>

<region>
hikey=b3
hivel=127
lokey=a#3
loop_end=243413
loop_mode=loop_continuous
loop_start=86735
loop_xfade=39169
lovel=1
pitch_keycenter=b3
sample=Violins1_trill_whole_MF_B3.opus
</region>

<region>
hikey=a6
hivel=127
lokey=g#6
loop_end=243191
loop_mode=loop_continuous
loop_start=86656
loop_xfade=39133
lovel=1
pitch_keycenter=a6
sample=Violins1_trill_whole_MF_A6.opus
</region>

<region>
hikey=a5
hivel=127
lokey=g#5
loop_end=244027
loop_mode=loop_continuous
loop_start=86954
loop_xfade=39268
lovel=1
pitch_keycenter=a5
sample=Violins1_trill_whole_MF_A5.opus
</region>

<region>
hikey=a4
hivel=127
lokey=g#4
loop_end=242214
loop_mode=loop_continuous
loop_start=86308
loop_xfade=38976
lovel=1
pitch_keycenter=a4
sample=Violins1_trill_whole_MF_A4.opus
</region>

<region>
hikey=a3
hivel=127
lokey=g#3
loop_end=244660
loop_mode=loop_continuous
loop_start=87179
loop_xfade=39370
lovel=1
pitch_keycenter=a3
sample=Violins1_trill_whole_MF_A3.opus
</region>
</group>

<group>
group_label=FF
xf_cccurve=gain
xfin_hicc1=127
xfin_locc1=85
xfout_hicc1=127
xfout_locc1=127

<region>
hikey=g6
hivel=127
lokey=f#6
loop_end=237809
loop_mode=loop_continuous
loop_start=84738
loop_xfade=38267
lovel=1
pitch_keycenter=g6
sample=Violins1_trill_whole_FF_G6.opus
</region>

<region>
hikey=g5
hivel=127
lokey=f#5
loop_end=241060
loop_mode=loop_continuous
loop_start=85897
loop_xfade=38790
lovel=1
pitch_keycenter=g5
sample=Violins1_trill_whole_FF_G5.opus
</region>

<region>
hikey=g4
hivel=127
lokey=f#4
loop_end=246677
loop_mode=loop_continuous
loop_start=87898
loop_xfade=39694
lovel=1
pitch_keycenter=g4
sample=Violins1_trill_whole_FF_G4.opus
</region>

<region>
hivel=127
key=g3
loop_end=241283
loop_mode=loop_continuous
loop_start=85976
loop_xfade=38826
lovel=1
sample=Violins1_trill_whole_FF_G3.opus
</region>

<region>
hikey=f6
hivel=127
lokey=e6
loop_end=237115
loop_mode=loop_continuous
loop_start=84491
loop_xfade=38156
lovel=1
pitch_keycenter=f6
sample=Violins1_trill_whole_FF_F6.opus
</region>

<region>
hikey=f5
hivel=127
lokey=e5
loop_end=242078
loop_mode=loop_continuous
loop_start=86259
loop_xfade=38954
lovel=1
pitch_keycenter=f5
sample=Violins1_trill_whole_FF_F5.opus
</region>

<region>
hikey=f4
hivel=127
lokey=e4
loop_end=244926
loop_mode=loop_continuous
loop_start=87274
loop_xfade=39413
lovel=1
pitch_keycenter=f4
sample=Violins1_trill_whole_FF_F4.opus
</region>

<region>
hikey=d#6
hivel=127
lokey=d6
loop_end=240420
loop_mode=loop_continuous
loop_start=85669
loop_xfade=38687
lovel=1
pitch_keycenter=d#6
sample=Violins1_trill_whole_FF_D#6.opus
</region>

<region>
hikey=d#5
hivel=127
lokey=d5
loop_end=233461
loop_mode=loop_continuous
loop_start=83189
loop_xfade=37568
lovel=1
pitch_keycenter=d#5
sample=Violins1_trill_whole_FF_D#5.opus
</region>

<region>
hikey=d#4
hivel=127
lokey=d4
loop_end=241406
loop_mode=loop_continuous
loop_start=86020
loop_xfade=38846
lovel=1
pitch_keycenter=d#4
sample=Violins1_trill_whole_FF_D#4.opus
</region>

<region>
hikey=c#6
hivel=127
lokey=c6
loop_end=241164
loop_mode=loop_continuous
loop_start=85934
loop_xfade=38807
lovel=1
pitch_keycenter=c#6
sample=Violins1_trill_whole_FF_C#6.opus
</region>

<region>
hikey=c#5
hivel=127
lokey=c5
loop_end=239209
loop_mode=loop_continuous
loop_start=85237
loop_xfade=38493
lovel=1
pitch_keycenter=c#5
sample=Violins1_trill_whole_FF_C#5.opus
</region>

<region>
hikey=c#4
hivel=127
lokey=c4
loop_end=243611
loop_mode=loop_continuous
loop_start=86806
loop_xfade=39201
lovel=1
pitch_keycenter=c#4
sample=Violins1_trill_whole_FF_C#4.opus
</region>

<region>
hikey=D7
hivel=127
lokey=a#6
loop_end=242104
loop_mode=loop_continuous
loop_start=86269
loop_xfade=38958
lovel=1
pitch_keycenter=B6
sample=Violins1_trill_whole_FF_B6.opus
</region>

<region>
hikey=b5
hivel=127
lokey=a#5
loop_end=238535
loop_mode=loop_continuous
loop_start=84997
loop_xfade=38384
lovel=1
pitch_keycenter=b5
sample=Violins1_trill_whole_FF_B5.opus
</region>

<region>
hikey=b4
hivel=127
lokey=a#4
loop_end=243457
loop_mode=loop_continuous
loop_start=86751
loop_xfade=39176
lovel=1
pitch_keycenter=b4
sample=Violins1_trill_whole_FF_B4.opus
</region>

<region>
hikey=b3
hivel=127
lokey=a#3
loop_end=244657
loop_mode=loop_continuous
loop_start=87179
loop_xfade=39369
lovel=1
pitch_keycenter=b3
sample=Violins1_trill_whole_FF_B3.opus
</region>

<region>
hikey=a6
hivel=127
lokey=g#6
loop_end=236494
loop_mode=loop_continuous
loop_start=84270
loop_xfade=38056
lovel=1
pitch_keycenter=a6
sample=Violins1_trill_whole_FF_A6.opus
</region>

<region>
hikey=a5
hivel=127
lokey=g#5
loop_end=241977
loop_mode=loop_continuous
loop_start=86223
loop_xfade=38938
lovel=1
pitch_keycenter=a5
sample=Violins1_trill_whole_FF_A5.opus
</region>

<region>
hikey=a4
hivel=127
lokey=g#4
loop_end=239973
loop_mode=loop_continuous
loop_start=85509
loop_xfade=38616
lovel=1
pitch_keycenter=a4
sample=Violins1_trill_whole_FF_A4.opus
</region>

<region>
hikey=a3
hivel=127
lokey=g#3
loop_end=247838
loop_mode=loop_continuous
loop_start=88312
loop_xfade=39881
lovel=1
pitch_keycenter=a3
sample=Violins1_trill_whole_FF_A3.opus
</region>
</group>

<group>
ampeg_release=1.50
group_label=Accent_copy

<region>
hivel=42
key=G6
lovel=0
sample=Violins1_staccatissimo_PP_G6_RR1.opus
</region>

<region>
hivel=42
key=G5
lovel=0
offset=2410
sample=Violins1_staccatissimo_PP_G5_RR1.opus
</region>

<region>
hivel=42
key=G4
lovel=0
sample=Violins1_staccatissimo_PP_G4_RR1.opus
</region>

<region>
hivel=42
key=G3
lovel=0
offset=2240
sample=Violins1_staccatissimo_PP_G3_RR1.opus
</region>

<region>
hivel=42
key=G#6
lovel=0
sample=Violins1_staccatissimo_PP_G#6_RR1.opus
</region>

<region>
hivel=42
key=G#5
lovel=0
offset=2640
sample=Violins1_staccatissimo_PP_G#5_RR1.opus
</region>

<region>
hivel=42
key=G#4
lovel=0
offset=3517
sample=Violins1_staccatissimo_PP_G#4_RR1.opus
</region>

<region>
hivel=42
key=G#3
lovel=0
sample=Violins1_staccatissimo_PP_G#3_RR1.opus
</region>

<region>
hivel=42
key=F6
lovel=0
offset=1493
sample=Violins1_staccatissimo_PP_F6_RR1.opus
</region>

<region>
hivel=42
key=F5
lovel=0
offset=2746
sample=Violins1_staccatissimo_PP_F5_RR1.opus
</region>

<region>
hivel=42
key=F4
lovel=0
offset=3097
sample=Violins1_staccatissimo_PP_F4_RR1.opus
</region>

<region>
hivel=42
key=F#6
lovel=0
sample=Violins1_staccatissimo_PP_F#6_RR1.opus
</region>

<region>
hivel=42
key=F#5
lovel=0
offset=3294
sample=Violins1_staccatissimo_PP_F#5_RR1.opus
</region>

<region>
hivel=42
key=F#4
lovel=0
sample=Violins1_staccatissimo_PP_F#4_RR1.opus
</region>

<region>
hivel=42
key=E6
lovel=0
offset=2633
sample=Violins1_staccatissimo_PP_E6_RR1.opus
</region>

<region>
hivel=42
key=E5
lovel=0
offset=2009
sample=Violins1_staccatissimo_PP_E5_RR1.opus
</region>

<region>
hivel=42
key=E4
lovel=0
offset=3068
sample=Violins1_staccatissimo_PP_E4_RR1.opus
</region>

<region>
hivel=42
key=D6
lovel=0
offset=2925
sample=Violins1_staccatissimo_PP_D6_RR1.opus
</region>

<region>
hivel=42
key=D5
lovel=0
offset=1787
sample=Violins1_staccatissimo_PP_D5_RR1.opus
</region>

<region>
hivel=42
key=D4
lovel=0
offset=369
sample=Violins1_staccatissimo_PP_D4_RR1.opus
</region>

<region>
hivel=42
key=D#6
lovel=0
offset=2934
sample=Violins1_staccatissimo_PP_D#6_RR1.opus
</region>

<region>
hivel=42
key=D#5
lovel=0
offset=1297
sample=Violins1_staccatissimo_PP_D#5_RR1.opus
</region>

<region>
hivel=42
key=D#4
lovel=0
sample=Violins1_staccatissimo_PP_D#4_RR1.opus
</region>

<region>
hikey=D7
hivel=42
lokey=C7
lovel=0
offset=2896
pitch_keycenter=C7
sample=Violins1_staccatissimo_PP_C7_RR1.opus
</region>

<region>
hivel=42
key=C6
lovel=0
offset=3261
sample=Violins1_staccatissimo_PP_C6_RR1.opus
</region>

<region>
hivel=42
key=C5
lovel=0
sample=Violins1_staccatissimo_PP_C5_RR1.opus
</region>

<region>
hivel=42
key=C4
lovel=0
offset=2189
sample=Violins1_staccatissimo_PP_C4_RR1.opus
</region>

<region>
hivel=42
key=C#6
lovel=0
offset=3770
sample=Violins1_staccatissimo_PP_C#6_RR1.opus
</region>

<region>
hivel=42
key=C#5
lovel=0
offset=3852
sample=Violins1_staccatissimo_PP_C#5_RR1.opus
</region>

<region>
hivel=42
key=C#4
lovel=0
offset=1455
sample=Violins1_staccatissimo_PP_C#4_RR1.opus
</region>

<region>
hivel=42
key=B6
lovel=0
offset=2665
sample=Violins1_staccatissimo_PP_B6_RR1.opus
</region>

<region>
hivel=42
key=B5
lovel=0
offset=873
sample=Violins1_staccatissimo_PP_B5_RR1.opus
</region>

<region>
hivel=42
key=B4
lovel=0
offset=2260
sample=Violins1_staccatissimo_PP_B4_RR1.opus
</region>

<region>
hivel=42
key=B3
lovel=0
sample=Violins1_staccatissimo_PP_B3_RR1.opus
</region>

<region>
hivel=42
key=A6
lovel=0
offset=2386
sample=Violins1_staccatissimo_PP_A6_RR1.opus
</region>

<region>
hivel=42
key=A5
lovel=0
sample=Violins1_staccatissimo_PP_A5_RR1.opus
</region>

<region>
hivel=42
key=A4
lovel=0
offset=2475
sample=Violins1_staccatissimo_PP_A4_RR1.opus
</region>

<region>
hivel=42
key=A3
lovel=0
sample=Violins1_staccatissimo_PP_A3_RR1.opus
</region>

<region>
hivel=42
key=A#6
lovel=0
offset=2733
sample=Violins1_staccatissimo_PP_A#6_RR1.opus
</region>

<region>
hivel=42
key=A#5
lovel=0
offset=1336
sample=Violins1_staccatissimo_PP_A#5_RR1.opus
</region>

<region>
hivel=42
key=A#4
lovel=0
offset=2812
sample=Violins1_staccatissimo_PP_A#4_RR1.opus
</region>

<region>
hivel=42
key=A#3
lovel=0
sample=Violins1_staccatissimo_PP_A#3_RR1.opus
</region>

<region>
hivel=84
key=G6
lovel=43
offset=196
sample=Violins1_staccatissimo_MF_G6_RR1.opus
</region>

<region>
hivel=84
key=G5
lovel=43
offset=11
sample=Violins1_staccatissimo_MF_G5_RR1.opus
</region>

<region>
hivel=84
key=G4
lovel=43
sample=Violins1_staccatissimo_MF_G4_RR1.opus
</region>

<region>
hivel=84
key=G3
lovel=43
sample=Violins1_staccatissimo_MF_G3_RR1.opus
</region>

<region>
hivel=84
key=G#6
lovel=43
sample=Violins1_staccatissimo_MF_G#6_RR1.opus
</region>

<region>
hivel=84
key=G#5
lovel=43
offset=63
sample=Violins1_staccatissimo_MF_G#5_RR1.opus
</region>

<region>
hivel=84
key=G#4
lovel=43
offset=68
sample=Violins1_staccatissimo_MF_G#4_RR1.opus
</region>

<region>
hivel=84
key=G#3
lovel=43
offset=6117
sample=Violins1_staccatissimo_MF_G#3_RR1.opus
</region>

<region>
hivel=84
key=F6
lovel=43
sample=Violins1_staccatissimo_MF_F6_RR1.opus
</region>

<region>
hivel=84
key=F5
lovel=43
offset=2851
sample=Violins1_staccatissimo_MF_F5_RR1.opus
</region>

<region>
hivel=84
key=F4
lovel=43
offset=691
sample=Violins1_staccatissimo_MF_F4_RR1.opus
</region>

<region>
hivel=84
key=F#6
lovel=43
offset=72
sample=Violins1_staccatissimo_MF_F#6_RR1.opus
</region>

<region>
hivel=84
key=F#5
lovel=43
offset=510
sample=Violins1_staccatissimo_MF_F#5_RR1.opus
</region>

<region>
hivel=84
key=F#4
lovel=43
offset=4356
sample=Violins1_staccatissimo_MF_F#4_RR1.opus
</region>

<region>
hivel=84
key=E6
lovel=43
sample=Violins1_staccatissimo_MF_E6_RR1.opus
</region>

<region>
hivel=84
key=E5
lovel=43
offset=4048
sample=Violins1_staccatissimo_MF_E5_RR1.opus
</region>

<region>
hivel=84
key=E4
lovel=43
sample=Violins1_staccatissimo_MF_E4_RR1.opus
</region>

<region>
hivel=84
key=D6
lovel=43
sample=Violins1_staccatissimo_MF_D6_RR1.opus
</region>

<region>
hivel=84
key=D5
lovel=43
offset=4311
sample=Violins1_staccatissimo_MF_D5_RR1.opus
</region>

<region>
hivel=84
key=D4
lovel=43
offset=1222
sample=Violins1_staccatissimo_MF_D4_RR1.opus
</region>

<region>
hivel=84
key=D#6
lovel=43
offset=638
sample=Violins1_staccatissimo_MF_D#6_RR1.opus
</region>

<region>
hivel=84
key=D#5
lovel=43
sample=Violins1_staccatissimo_MF_D#5_RR1.opus
</region>

<region>
hivel=84
key=d#4
lovel=43
sample=Violins1_staccatissimo_MF_D#4_RR1.opus
</region>

<region>
hikey=D7
hivel=84
lokey=C7
lovel=43
pitch_keycenter=C7
sample=Violins1_staccatissimo_MF_C7_RR1.opus
</region>

<region>
hivel=84
key=C6
lovel=43
offset=49
sample=Violins1_staccatissimo_MF_C6_RR1.opus
</region>

<region>
hivel=84
key=C5
lovel=43
sample=Violins1_staccatissimo_MF_C5_RR1.opus
</region>

<region>
hivel=84
key=C4
lovel=43
sample=Violins1_staccatissimo_MF_C4_RR1.opus
</region>

<region>
hivel=84
key=C#6
lovel=43
offset=66
sample=Violins1_staccatissimo_MF_C#6_RR1.opus
</region>

<region>
hivel=84
key=C#5
lovel=43
offset=212
sample=Violins1_staccatissimo_MF_C#5_RR1.opus
</region>

<region>
hivel=84
key=C#4
lovel=43
offset=513
sample=Violins1_staccatissimo_MF_C#4_RR1.opus
</region>

<region>
hivel=84
key=B6
lovel=43
offset=370
sample=Violins1_staccatissimo_MF_B6_RR1.opus
</region>

<region>
hivel=84
key=B5
lovel=43
offset=3965
sample=Violins1_staccatissimo_MF_B5_RR1.opus
</region>

<region>
hivel=84
key=B4
lovel=43
offset=619
sample=Violins1_staccatissimo_MF_B4_RR1.opus
</region>

<region>
hivel=84
key=B3
lovel=43
offset=4731
sample=Violins1_staccatissimo_MF_B3_RR1.opus
</region>

<region>
hivel=84
key=A6
lovel=43
sample=Violins1_staccatissimo_MF_A6_RR1.opus
</region>

<region>
hivel=84
key=A5
lovel=43
sample=Violins1_staccatissimo_MF_A5_RR1.opus
</region>

<region>
hivel=84
key=A4
lovel=43
sample=Violins1_staccatissimo_MF_A4_RR1.opus
</region>

<region>
hivel=84
key=A3
lovel=43
offset=4685
sample=Violins1_staccatissimo_MF_A3_RR1.opus
</region>

<region>
hivel=84
key=A#6
lovel=43
offset=105
sample=Violins1_staccatissimo_MF_A#6_RR1.opus
</region>

<region>
hivel=84
key=A#5
lovel=43
sample=Violins1_staccatissimo_MF_A#5_RR1.opus
</region>

<region>
hivel=84
key=A#4
lovel=43
offset=725
sample=Violins1_staccatissimo_MF_A#4_RR1.opus
</region>

<region>
hivel=84
key=A#3
lovel=43
sample=Violins1_staccatissimo_MF_A#3_RR1.opus
</region>

<region>
hivel=127
key=G6
lovel=85
offset=1356
sample=Violins1_staccatissimo_FF_G6_RR1.opus
</region>

<region>
hivel=127
key=G5
lovel=85
offset=64
sample=Violins1_staccatissimo_FF_G5_RR1.opus
</region>

<region>
hivel=127
key=G4
lovel=85
sample=Violins1_staccatissimo_FF_G4_RR1.opus
</region>

<region>
hivel=127
key=G3
lovel=85
sample=Violins1_staccatissimo_FF_G3_RR1.opus
</region>

<region>
hivel=127
key=G#6
lovel=85
offset=1366
sample=Violins1_staccatissimo_FF_G#6_RR1.opus
</region>

<region>
hivel=127
key=G#5
lovel=85
offset=276
sample=Violins1_staccatissimo_FF_G#5_RR1.opus
</region>

<region>
hivel=127
key=G#4
lovel=85
offset=494
sample=Violins1_staccatissimo_FF_G#4_RR1.opus
</region>

<region>
hivel=127
key=G#3
lovel=85
offset=286
sample=Violins1_staccatissimo_FF_G#3_RR1.opus
</region>

<region>
hivel=127
key=F6
lovel=85
offset=669
sample=Violins1_staccatissimo_FF_F6_RR1.opus
</region>

<region>
hivel=127
key=F5
lovel=85
offset=1260
sample=Violins1_staccatissimo_FF_F5_RR1.opus
</region>

<region>
hivel=127
key=F4
lovel=85
sample=Violins1_staccatissimo_FF_F4_RR1.opus
</region>

<region>
hivel=127
key=F#6
lovel=85
offset=1099
sample=Violins1_staccatissimo_FF_F#6_RR1.opus
</region>

<region>
hivel=127
key=F#5
lovel=85
offset=1176
sample=Violins1_staccatissimo_FF_F#5_RR1.opus
</region>

<region>
hivel=127
key=F#4
lovel=85
offset=340
sample=Violins1_staccatissimo_FF_F#4_RR1.opus
</region>

<region>
hivel=127
key=E6
lovel=85
offset=1188
sample=Violins1_staccatissimo_FF_E6_RR1.opus
</region>

<region>
hivel=127
key=E5
lovel=85
sample=Violins1_staccatissimo_FF_E5_RR1.opus
</region>

<region>
hivel=127
key=E4
lovel=85
offset=360
sample=Violins1_staccatissimo_FF_E4_RR1.opus
</region>

<region>
hivel=127
key=D6
lovel=85
sample=Violins1_staccatissimo_FF_D6_RR1.opus
</region>

<region>
hivel=127
key=D5
lovel=85
sample=Violins1_staccatissimo_FF_D5_RR1.opus
</region>

<region>
hivel=127
key=D4
lovel=85
sample=Violins1_staccatissimo_FF_D4_RR1.opus
</region>

<region>
hivel=127
key=D#6
lovel=85
sample=Violins1_staccatissimo_FF_D#6_RR1.opus
</region>

<region>
hivel=127
key=D#5
lovel=85
offset=147
sample=Violins1_staccatissimo_FF_D#5_RR1.opus
</region>

<region>
hivel=127
key=D#4
lovel=85
offset=973
sample=Violins1_staccatissimo_FF_D#4_RR1.opus
</region>

<region>
hikey=D7
hivel=127
lokey=C7
lovel=85
offset=639
pitch_keycenter=C7
sample=Violins1_staccatissimo_FF_C7_RR1.opus
</region>

<region>
hivel=127
key=C6
lovel=85
sample=Violins1_staccatissimo_FF_C6_RR1.opus
</region>

<region>
hivel=127
key=C5
lovel=85
offset=171
sample=Violins1_staccatissimo_FF_C5_RR1.opus
</region>

<region>
hivel=127
key=C4
lovel=85
sample=Violins1_staccatissimo_FF_C4_RR1.opus
</region>

<region>
hivel=127
key=C#6
lovel=85
offset=637
sample=Violins1_staccatissimo_FF_C#6_RR1.opus
</region>

<region>
hivel=127
key=C#5
lovel=85
sample=Violins1_staccatissimo_FF_C#5_RR1.opus
</region>

<region>
hivel=127
key=C#4
lovel=85
sample=Violins1_staccatissimo_FF_C#4_RR1.opus
</region>

<region>
hivel=127
key=B6
lovel=85
sample=Violins1_staccatissimo_FF_B6_RR1.opus
</region>

<region>
hivel=127
key=B5
lovel=85
offset=1329
sample=Violins1_staccatissimo_FF_B5_RR1.opus
</region>

<region>
hivel=127
key=B4
lovel=85
offset=4472
sample=Violins1_staccatissimo_FF_B4_RR1.opus
</region>

<region>
hivel=127
key=B3
lovel=85
sample=Violins1_staccatissimo_FF_B3_RR1.opus
</region>

<region>
hivel=127
key=A6
lovel=85
offset=261
sample=Violins1_staccatissimo_FF_A6_RR1.opus
</region>

<region>
hivel=127
key=A5
lovel=85
offset=881
sample=Violins1_staccatissimo_FF_A5_RR1.opus
</region>

<region>
hivel=127
key=A4
lovel=85
offset=544
sample=Violins1_staccatissimo_FF_A4_RR1.opus
</region>

<region>
hivel=127
key=A3
lovel=85
sample=Violins1_staccatissimo_FF_A3_RR1.opus
</region>

<region>
hivel=127
key=A#6
lovel=85
sample=Violins1_staccatissimo_FF_A#6_RR1.opus
</region>

<region>
hivel=127
key=A#5
lovel=85
offset=216
sample=Violins1_staccatissimo_FF_A#5_RR1.opus
</region>

<region>
hivel=127
key=A#4
lovel=85
offset=743
sample=Violins1_staccatissimo_FF_A#4_RR1.opus
</region>

<region>
hivel=127
key=A#3
lovel=85
offset=450
sample=Violins1_staccatissimo_FF_A#3_RR1.opus
</region>
</group>